<svg version="1.1" xmlns="http://www.w3.org/2000/svg" viewBox="0 0 1781.7953804140766 756.3864511933177" width="1781.7953804140766" height="756.3864511933177">
  <!-- svg-source:excalidraw -->
  
  <defs>
    <style class="style-fonts">
      @font-face {
        font-family: "Virgil";
        src: url("https://excalidraw.com/Virgil.woff2");
      }
      @font-face {
        font-family: "Cascadia";
        src: url("https://excalidraw.com/Cascadia.woff2");
      }
      @font-face {
        font-family: "Assistant";
        src: url("https://excalidraw.com/Assistant-Regular.woff2");
      }
    </style>
    
  </defs>
  <rect x="0" y="0" width="1781.7953804140766" height="756.3864511933177" fill="#ffffff"></rect><g stroke-linecap="round" transform="translate(90.47706422018348 240) rotate(0 88.1697247706422 85.80275229357798)"><path d="M32 0 C75.6 0.11, 121.25 1.17, 144.34 0 M32 0 C73.6 -0.7, 113.2 -0.61, 144.34 0 M144.34 0 C165.79 -0.68, 177.43 12.26, 176.34 32 M144.34 0 C166.74 -0.15, 176.08 10, 176.34 32 M176.34 32 C175.62 58.82, 177.2 87.25, 176.34 139.61 M176.34 32 C176.51 72.16, 176.53 113.6, 176.34 139.61 M176.34 139.61 C175.9 162.57, 165.69 172.17, 144.34 171.61 M176.34 139.61 C177.42 161.14, 165.61 169.33, 144.34 171.61 M144.34 171.61 C104.49 172.71, 69.86 174.39, 32 171.61 M144.34 171.61 C113.77 171.78, 84.42 170.41, 32 171.61 M32 171.61 C11.97 170.98, -1.6 160.55, 0 139.61 M32 171.61 C9.87 171.65, -0.67 160.02, 0 139.61 M0 139.61 C0.65 111.2, -0.61 85.25, 0 32 M0 139.61 C-1.19 112.79, -1.56 85.02, 0 32 M0 32 C1.37 12.56, 9.28 -0.73, 32 0 M0 32 C-2.1 11.54, 10.14 0.7, 32 0" stroke="#1e1e1e" stroke-width="2" fill="none"></path></g><g stroke-linecap="round" transform="translate(56.1559633027523 275.5045871559633) rotate(0 99.41284403669724 88.76146788990826)"><path d="M32 0 C60.86 0.3, 92.04 0.12, 166.83 0 M32 0 C63.2 0.27, 93.4 0.39, 166.83 0 M166.83 0 C187.85 1.86, 198.05 10, 198.83 32 M166.83 0 C189.46 -1.43, 199.71 12.63, 198.83 32 M198.83 32 C199.95 67.98, 199.32 102.78, 198.83 145.52 M198.83 32 C200.08 62.51, 199.26 91.41, 198.83 145.52 M198.83 145.52 C198.5 166.35, 186.96 176.23, 166.83 177.52 M198.83 145.52 C196.78 166.94, 188.81 178.26, 166.83 177.52 M166.83 177.52 C138.63 178.4, 111.17 175.76, 32 177.52 M166.83 177.52 C128.75 175.67, 90.82 175.89, 32 177.52 M32 177.52 C10.41 177.8, 0.81 168.83, 0 145.52 M32 177.52 C10.41 179.72, 0.98 166.1, 0 145.52 M0 145.52 C-1.54 117.62, -2.45 92.15, 0 32 M0 145.52 C-1 120.25, -0.68 94.4, 0 32 M0 32 C1.59 9.69, 11.26 0.81, 32 0 M0 32 C-2.06 11.14, 11.3 -0.04, 32 0" stroke="#1e1e1e" stroke-width="2" fill="none"></path></g><g stroke-linecap="round" transform="translate(10 302.72477064220186) rotate(0 112.43119266055047 97.63761467889907)"><path d="M32 0 C77.84 -0.6, 121.45 2.84, 192.86 0 M32 0 C65.24 -1.3, 96.13 0.04, 192.86 0 M192.86 0 C214.15 1.89, 225.48 8.75, 224.86 32 M192.86 0 C214.55 -1.91, 224.26 9.66, 224.86 32 M224.86 32 C223.22 70.57, 225.73 109.2, 224.86 163.28 M224.86 32 C224.47 67.07, 224.62 103.08, 224.86 163.28 M224.86 163.28 C225.27 184.27, 215.89 195.45, 192.86 195.28 M224.86 163.28 C223.4 186.76, 211.93 197.43, 192.86 195.28 M192.86 195.28 C131.99 192.96, 69.06 195.25, 32 195.28 M192.86 195.28 C153.15 197.65, 115.58 196.58, 32 195.28 M32 195.28 C11.04 195.98, -0.07 183.4, 0 163.28 M32 195.28 C8.45 197.55, 0.08 182.74, 0 163.28 M0 163.28 C1.87 130.46, 2.56 101.35, 0 32 M0 163.28 C0.07 123.98, -0.51 82.04, 0 32 M0 32 C-0.8 9.18, 12.31 -0.57, 32 0 M0 32 C1.35 10.23, 11.23 -1.75, 32 0" stroke="#1e1e1e" stroke-width="2" fill="none"></path></g><g stroke-linecap="round"><g transform="translate(293.8165137614679 295.62400767811596) rotate(0 119.5 -0.6283039767218952)"><path d="M-0.28 1.09 C39.52 0.8, 199.09 -1.75, 239 -1.95 M1.78 0.61 C41.4 0.49, 198.6 -0.37, 238.05 -0.78" stroke="#1e1e1e" stroke-width="2" fill="none"></path></g><g transform="translate(293.8165137614679 295.62400767811596) rotate(0 119.5 -0.6283039767218952)"><path d="M214.62 7.94 C223.87 5.23, 228.32 2.75, 238.05 -0.78 M214.62 7.94 C224.47 4.51, 232.2 0.74, 238.05 -0.78" stroke="#1e1e1e" stroke-width="2" fill="none"></path></g><g transform="translate(293.8165137614679 295.62400767811596) rotate(0 119.5 -0.6283039767218952)"><path d="M214.49 -9.16 C223.75 -6.45, 228.24 -3.51, 238.05 -0.78 M214.49 -9.16 C224.44 -5.84, 232.23 -2.88, 238.05 -0.78" stroke="#1e1e1e" stroke-width="2" fill="none"></path></g></g><mask></mask><g transform="translate(336.8165137614679 261) rotate(0 70.01992797851562 12.5)"><text x="0" y="0" font-family="Virgil, Segoe UI Emoji" font-size="20px" fill="#1e1e1e" text-anchor="start" style="white-space: pre;" direction="ltr" dominant-baseline="text-before-edge">Current Frame</text></g><g transform="translate(299.8165137614679 413) rotate(0 105.4998779296875 12.5)"><text x="0" y="0" font-family="Virgil, Segoe UI Emoji" font-size="20px" fill="#1e1e1e" text-anchor="start" style="white-space: pre;" direction="ltr" dominant-baseline="text-before-edge">Last frame &amp; tracks</text></g><g stroke-linecap="round"><g transform="translate(276.00774173327665 450.28261923557926) rotate(0 129.19139823222076 -0.9513926508029726)"><path d="M0.97 0.92 C43.91 0.71, 215.67 -1.45, 258.44 -1.95 M0.01 0.36 C42.73 0.41, 214.18 -0.24, 257.52 -0.43" stroke="#1e1e1e" stroke-width="2" fill="none"></path></g><g transform="translate(276.00774173327665 450.28261923557926) rotate(0 129.19139823222076 -0.9513926508029726)"><path d="M234.07 8.21 C244.26 4.95, 251.26 0.39, 257.52 -0.43 M234.07 8.21 C239.88 5.94, 247.22 2.63, 257.52 -0.43" stroke="#1e1e1e" stroke-width="2" fill="none"></path></g><g transform="translate(276.00774173327665 450.28261923557926) rotate(0 129.19139823222076 -0.9513926508029726)"><path d="M234 -8.89 C244.12 -5.88, 251.14 -4.16, 257.52 -0.43 M234 -8.89 C239.83 -6.23, 247.2 -4.61, 257.52 -0.43" stroke="#1e1e1e" stroke-width="2" fill="none"></path></g></g><mask></mask><g stroke-linecap="round" transform="translate(587.7517508115243 130) rotate(0 158.5 78.5)"><path d="M32 0 C88.59 2.07, 142.06 2.86, 285 0 M32 0 C87.94 1, 143.63 0.58, 285 0 M285 0 C306.31 -0.29, 317.28 10.86, 317 32 M285 0 C308.33 -1.35, 316.81 10.8, 317 32 M317 32 C317.18 60.45, 316.87 88.45, 317 125 M317 32 C318.53 53.45, 318.34 73.53, 317 125 M317 125 C315.25 146.6, 305.6 158.16, 285 157 M317 125 C318.32 145.89, 307.62 157.25, 285 157 M285 157 C220.2 155.7, 151 157.07, 32 157 M285 157 C183.63 156.42, 83.89 155.23, 32 157 M32 157 C8.71 156.85, 1.98 144.7, 0 125 M32 157 C9.49 159.27, 0.36 146.33, 0 125 M0 125 C-1.11 102.19, 0.63 80.02, 0 32 M0 125 C0.28 91.86, -0.13 57.47, 0 32 M0 32 C-1.91 9.66, 10.38 1.32, 32 0 M0 32 C0.63 12.87, 10.88 1.78, 32 0" stroke="#1e1e1e" stroke-width="2" fill="none"></path></g><g transform="translate(620.6918982114266 183.5) rotate(0 125.55985260009766 25)"><text x="125.55985260009766" y="0" font-family="Virgil, Segoe UI Emoji" font-size="20px" fill="#1e1e1e" text-anchor="middle" style="white-space: pre;" direction="ltr" dominant-baseline="text-before-edge">Cosine Similarity between </text><text x="125.55985260009766" y="25" font-family="Virgil, Segoe UI Emoji" font-size="20px" fill="#1e1e1e" text-anchor="middle" style="white-space: pre;" direction="ltr" dominant-baseline="text-before-edge">ResNet embeddings</text></g><g stroke-linecap="round" transform="translate(591.2517508115243 324.5) rotate(0 158.5 78.5)"><path d="M32 0 C119.7 1.65, 207.23 0.48, 285 0 M32 0 C98.92 2.2, 165.24 2.07, 285 0 M285 0 C307.14 0.56, 318.14 9.77, 317 32 M285 0 C305.53 0.22, 317.58 8.75, 317 32 M317 32 C317.1 56.25, 317.09 77.21, 317 125 M317 32 C317.12 50.8, 315.29 70.06, 317 125 M317 125 C317.21 146.77, 305.46 157.18, 285 157 M317 125 C315.48 144.54, 305.51 156.16, 285 157 M285 157 C207.02 158.26, 127.98 155.96, 32 157 M285 157 C205.31 158.04, 125.14 157.5, 32 157 M32 157 C11.9 155.34, 1.25 146.32, 0 125 M32 157 C9.74 157.64, -0.72 146.26, 0 125 M0 125 C1.99 91.72, -0.52 58.62, 0 32 M0 125 C0.4 89.69, 1.23 56.04, 0 32 M0 32 C1.35 9.75, 10.73 1.23, 32 0 M0 32 C-2.25 9.01, 8.54 -1.01, 32 0" stroke="#1e1e1e" stroke-width="2" fill="none"></path></g><g transform="translate(609.1919058408212 378) rotate(0 140.55984497070312 25)"><text x="140.55984497070312" y="0" font-family="Virgil, Segoe UI Emoji" font-size="20px" fill="#1e1e1e" text-anchor="middle" style="white-space: pre;" direction="ltr" dominant-baseline="text-before-edge">Euclidean Distance between </text><text x="140.55984497070312" y="25" font-family="Virgil, Segoe UI Emoji" font-size="20px" fill="#1e1e1e" text-anchor="middle" style="white-space: pre;" direction="ltr" dominant-baseline="text-before-edge">color histograms</text></g><g stroke-linecap="round" transform="translate(597.2517508115243 521.5) rotate(0 158.5 78.5)"><path d="M32 0 C87.75 -0.64, 140.35 -1.34, 285 0 M32 0 C122.95 1.5, 213.36 1.01, 285 0 M285 0 C306.85 -1.5, 315.7 10.4, 317 32 M285 0 C307.87 -1.92, 318.62 9.01, 317 32 M317 32 C315.09 53.84, 318.51 75.46, 317 125 M317 32 C315.88 66.27, 316.55 98.65, 317 125 M317 125 C315.16 144.93, 307.78 156.64, 285 157 M317 125 C318.71 147.84, 304.78 158.42, 285 157 M285 157 C220.49 155.28, 154.4 156.75, 32 157 M285 157 C203.34 156.25, 120.49 155.33, 32 157 M32 157 C10.22 155.62, -0.74 147.41, 0 125 M32 157 C11.88 156.92, -1.12 147.37, 0 125 M0 125 C0.03 106.4, -0.54 88.02, 0 32 M0 125 C-0.17 104.5, -0.35 85.07, 0 32 M0 32 C0.54 11.84, 11.4 -1.63, 32 0 M0 32 C0.98 10.52, 11.83 0.13, 32 0" stroke="#1e1e1e" stroke-width="2" fill="none"></path></g><g transform="translate(641.4918707456063 587.5) rotate(0 114.25988006591797 12.5)"><text x="114.25988006591797" y="0" font-family="Virgil, Segoe UI Emoji" font-size="20px" fill="#1e1e1e" text-anchor="middle" style="white-space: pre;" direction="ltr" dominant-baseline="text-before-edge">Intersection over Union</text></g><g stroke-linecap="round" transform="translate(549.7517508115243 10) rotate(0 431 340.5)"><path d="M32 0 C291.7 1.76, 553.01 1.78, 830 0 M32 0 C240.73 -2.2, 448.64 -1.88, 830 0 M830 0 C851.61 0.55, 863.71 12.25, 862 32 M830 0 C852.8 -1.66, 861.65 12.65, 862 32 M862 32 C863.74 239.1, 863.42 446.31, 862 649 M862 32 C863.81 211.99, 863.78 392.79, 862 649 M862 649 C862.9 669.35, 849.67 680.36, 830 681 M862 649 C862.98 668.19, 850.5 680.16, 830 681 M830 681 C575.67 680.79, 320.55 679.9, 32 681 M830 681 C632.83 678.75, 435.75 678.42, 32 681 M32 681 C9.8 682.58, -0.99 671.97, 0 649 M32 681 C10.14 681.69, 2.24 671.21, 0 649 M0 649 C1.5 513.96, 1.04 380.25, 0 32 M0 649 C2.59 444.43, 2.72 240.44, 0 32 M0 32 C-0.72 9.67, 12.66 0.76, 32 0 M0 32 C-1.16 12.32, 10.9 0.45, 32 0" stroke="#1e1e1e" stroke-width="2" fill="none"></path></g><g stroke-linecap="round" transform="translate(1003.6829064931344 346.31405091285706) rotate(0 135.5 57)"><path d="M28.5 0 C81.01 2.27, 130.13 0.68, 242.5 0 M28.5 0 C77.56 1.63, 124.42 2.07, 242.5 0 M242.5 0 C261.06 -1.08, 270.94 8.26, 271 28.5 M242.5 0 C261.93 -1.01, 270.27 9.36, 271 28.5 M271 28.5 C272.92 52.11, 273.4 72.01, 271 85.5 M271 28.5 C271.72 47.38, 272.22 65.75, 271 85.5 M271 85.5 C270.74 104.95, 260.62 115.92, 242.5 114 M271 85.5 C270.74 105.98, 259.25 114.38, 242.5 114 M242.5 114 C162.83 116.5, 81.88 117.12, 28.5 114 M242.5 114 C178.9 115.79, 115.01 115.91, 28.5 114 M28.5 114 C11.04 112.66, 1.46 103.97, 0 85.5 M28.5 114 C11.48 114.3, 0.96 106.16, 0 85.5 M0 85.5 C1.06 69.44, -1.43 54.74, 0 28.5 M0 85.5 C1.03 64.37, -0.58 44.41, 0 28.5 M0 28.5 C-0.05 11.27, 11.14 -0.55, 28.5 0 M0 28.5 C-2.23 11.2, 9.7 1.83, 28.5 0" stroke="#1e1e1e" stroke-width="2" fill="none"></path></g><g transform="translate(1059.1730035390328 390.81405091285706) rotate(0 80.00990295410156 12.5)"><text x="80.00990295410156" y="0" font-family="Virgil, Segoe UI Emoji" font-size="20px" fill="#1e1e1e" text-anchor="middle" style="white-space: pre;" direction="ltr" dominant-baseline="text-before-edge">Similarity Matrix</text></g><g stroke-linecap="round"><g transform="translate(925.6829064931344 211.31405091285706) rotate(0 34.5 64)"><path d="M0.21 0.36 C11.68 21.57, 56.33 105.72, 67.81 127.11 M-1.14 -0.5 C10.77 20.85, 58.32 106.97, 69.9 128.19" stroke="#1e1e1e" stroke-width="2" fill="none"></path></g><g transform="translate(925.6829064931344 211.31405091285706) rotate(0 34.5 64)"><path d="M51.09 111.72 C55.66 113.2, 57.58 118.81, 69.9 128.19 M51.09 111.72 C58.13 117.54, 63.8 123.98, 69.9 128.19" stroke="#1e1e1e" stroke-width="2" fill="none"></path></g><g transform="translate(925.6829064931344 211.31405091285706) rotate(0 34.5 64)"><path d="M66.08 103.48 C67.46 106.74, 66.19 114.1, 69.9 128.19 M66.08 103.48 C67.69 112.22, 67.93 121.65, 69.9 128.19" stroke="#1e1e1e" stroke-width="2" fill="none"></path></g></g><mask></mask><g stroke-linecap="round"><g transform="translate(922.6829064931344 401.31405091285706) rotate(0 33 0)"><path d="M0.43 -0.32 C11.53 -0.05, 55.66 0.8, 66.57 0.87 M-0.8 -1.54 C10.2 -1.53, 54.95 -1.29, 65.92 -0.79" stroke="#1e1e1e" stroke-width="2" fill="none"></path></g><g transform="translate(922.6829064931344 401.31405091285706) rotate(0 33 0)"><path d="M42.24 7.24 C48.8 5.71, 57.84 2.12, 65.92 -0.79 M42.24 7.24 C50.3 4.47, 57.23 3.05, 65.92 -0.79" stroke="#1e1e1e" stroke-width="2" fill="none"></path></g><g transform="translate(922.6829064931344 401.31405091285706) rotate(0 33 0)"><path d="M42.62 -9.86 C48.96 -6.3, 57.89 -4.8, 65.92 -0.79 M42.62 -9.86 C50.4 -7.35, 57.21 -3.49, 65.92 -0.79" stroke="#1e1e1e" stroke-width="2" fill="none"></path></g></g><mask></mask><g stroke-linecap="round"><g transform="translate(931.6829064931344 594.314050912857) rotate(0 33.5 -62.5)"><path d="M0.05 -0.68 C11.27 -21.56, 56.86 -104.35, 68 -125.02 M-1.38 1.57 C9.7 -19.12, 56.33 -102.7, 67.58 -123.5" stroke="#1e1e1e" stroke-width="2" fill="none"></path></g><g transform="translate(931.6829064931344 594.314050912857) rotate(0 33.5 -62.5)"><path d="M63.75 -98.79 C63.94 -105.99, 66.42 -116.69, 67.58 -123.5 M63.75 -98.79 C65.99 -106.47, 65.46 -114.82, 67.58 -123.5" stroke="#1e1e1e" stroke-width="2" fill="none"></path></g><g transform="translate(931.6829064931344 594.314050912857) rotate(0 33.5 -62.5)"><path d="M48.76 -107.04 C54.35 -111.28, 62.2 -119.02, 67.58 -123.5 M48.76 -107.04 C55.85 -112.09, 60.18 -117.76, 67.58 -123.5" stroke="#1e1e1e" stroke-width="2" fill="none"></path></g></g><mask></mask><g stroke-linecap="round" transform="translate(924.2808528985452 157.31405091285706) rotate(0 18.56680279970169 245.67698734998703)"><path d="M26.94 26.47 C28.66 33.12, 30.17 51.68, 31.6 67.54 C33.03 83.39, 34.75 101.76, 35.53 121.6 C36.31 141.43, 36.13 164.03, 36.28 186.55 C36.43 209.08, 36.48 233.59, 36.43 256.74 C36.38 279.89, 36.42 303.83, 35.99 325.45 C35.56 347.08, 34.82 367.61, 33.85 386.48 C32.88 405.35, 31.52 424.18, 30.16 438.66 C28.81 453.14, 27.35 464.66, 25.71 473.38 C24.07 482.1, 22.24 488.53, 20.33 491 C18.41 493.47, 15.88 492.67, 14.24 488.2 C12.59 483.72, 11.8 474.9, 10.46 464.13 C9.11 453.36, 7.4 439.13, 6.16 423.57 C4.92 408.01, 3.94 390.65, 3.03 370.79 C2.11 350.94, 1.01 327.03, 0.67 304.44 C0.32 281.85, 0.82 258.21, 0.95 235.26 C1.09 212.31, 0.98 188.49, 1.46 166.74 C1.94 144.99, 2.87 123.52, 3.84 104.78 C4.8 86.04, 6.08 68.61, 7.22 54.32 C8.37 40.03, 9.12 27.74, 10.7 19.03 C12.27 10.31, 14.89 4.57, 16.66 2.05 C18.44 -0.48, 19.61 -1.37, 21.33 3.88 C23.05 9.14, 25.65 26.78, 26.98 33.58 C28.31 40.38, 29.15 41.2, 29.3 44.7 M13.65 8.82 C14.82 -0.25, 16.7 -0.1, 18.35 0.47 C19.99 1.03, 21.47 5.02, 23.5 12.21 C25.52 19.4, 28.95 30.48, 30.52 43.63 C32.09 56.77, 32.27 73.35, 32.92 91.1 C33.56 108.86, 33.95 128.78, 34.4 150.15 C34.85 171.52, 35.14 196.39, 35.61 219.31 C36.08 242.23, 37.22 265.24, 37.22 287.69 C37.23 310.14, 36.5 333.42, 35.65 353.98 C34.81 374.54, 33.35 394.05, 32.14 411.06 C30.94 428.06, 29.81 443.9, 28.42 455.99 C27.04 468.07, 25.75 477.87, 23.83 483.56 C21.91 489.26, 18.95 490.91, 16.9 490.16 C14.84 489.41, 12.74 485.9, 11.5 479.05 C10.26 472.19, 10.6 462.29, 9.44 449.04 C8.28 435.78, 5.73 417.71, 4.54 399.51 C3.35 381.31, 3.23 360.9, 2.29 339.85 C1.35 318.79, -0.88 296.05, -1.08 273.18 C-1.29 250.32, 0.56 225.51, 1.05 202.65 C1.53 179.8, 1.41 156.51, 1.82 136.07 C2.23 115.63, 2.36 96.76, 3.52 80.02 C4.68 63.28, 7.16 47.67, 8.76 35.61 C10.36 23.54, 12.05 11.42, 13.1 7.63 C14.16 3.84, 14.66 8.88, 15.1 12.86" stroke="#1e1e1e" stroke-width="2" fill="none"></path></g><g transform="translate(960.4144584979485 155.66802561283112) rotate(0 58.92278289794922 37.031046901223846)"><text x="0" y="0" font-family="Virgil, Segoe UI Emoji" font-size="29.624837520979074px" fill="#1e1e1e" text-anchor="start" style="white-space: pre;" direction="ltr" dominant-baseline="text-before-edge">Sum</text><text x="0" y="37.031046901223846" font-family="Virgil, Segoe UI Emoji" font-size="29.624837520979074px" fill="#1e1e1e" text-anchor="start" style="white-space: pre;" direction="ltr" dominant-baseline="text-before-edge"> &amp; Norm</text></g><g stroke-linecap="round" transform="translate(1427.4144584979485 357.83747112751007) rotate(0 151.5 57.5)"><path d="M28.75 0 C113.01 -0.27, 195.99 -2.31, 274.25 0 M28.75 0 C81.65 0.91, 135.41 2.17, 274.25 0 M274.25 0 C293.48 -0.99, 302.06 9.26, 303 28.75 M274.25 0 C293.25 0.39, 304.79 7.53, 303 28.75 M303 28.75 C304.85 50.92, 301.2 73.06, 303 86.25 M303 28.75 C302.31 43.76, 303.16 59.18, 303 86.25 M303 86.25 C302.43 104.17, 292.26 113.72, 274.25 115 M303 86.25 C303.16 104.44, 293.73 114.11, 274.25 115 M274.25 115 C206.49 115.65, 139.86 117.1, 28.75 115 M274.25 115 C224.07 116.92, 174.31 116.71, 28.75 115 M28.75 115 C7.62 116.24, -0.97 105.99, 0 86.25 M28.75 115 C9.41 116.82, -0.44 103.19, 0 86.25 M0 86.25 C-1.06 69.2, 1.25 53.22, 0 28.75 M0 86.25 C0.56 65.53, 0.4 42.59, 0 28.75 M0 28.75 C-1.22 10.38, 7.79 -0.61, 28.75 0 M0 28.75 C-1.48 8.64, 9.46 -0.87, 28.75 0" stroke="#1e1e1e" stroke-width="2" fill="none"></path></g><g transform="translate(1471.4144584979485 398.83747112751007) rotate(0 106.07987976074219 12.5)"><text x="0" y="0" font-family="Virgil, Segoe UI Emoji" font-size="20px" fill="#1e1e1e" text-anchor="start" style="white-space: pre;" direction="ltr" dominant-baseline="text-before-edge">Current frame tracks</text></g><g stroke-linecap="round"><g transform="translate(1288.4144584979485 407.8476176272013) rotate(0 60.000000000000114 0.1312640757544159)"><path d="M-0.01 0.41 C20.11 0.19, 100.52 -0.14, 120.64 -0.1 M-1.47 -0.43 C18.55 0.04, 99.72 1.42, 120.03 1.25" stroke="#1e1e1e" stroke-width="2" fill="none"></path></g><g transform="translate(1288.4144584979485 407.8476176272013) rotate(0 60.000000000000114 0.1312640757544159)"><path d="M96.48 9.65 C103.98 8.25, 109.61 5.93, 120.03 1.25 M96.48 9.65 C103.58 6.4, 112.09 4.12, 120.03 1.25" stroke="#1e1e1e" stroke-width="2" fill="none"></path></g><g transform="translate(1288.4144584979485 407.8476176272013) rotate(0 60.000000000000114 0.1312640757544159)"><path d="M96.59 -7.45 C104.22 -3.83, 109.82 -1.14, 120.03 1.25 M96.59 -7.45 C103.61 -5.02, 112.09 -1.63, 120.03 1.25" stroke="#1e1e1e" stroke-width="2" fill="none"></path></g></g><mask></mask><g transform="translate(1285.4144584979485 429.83747112751007) rotate(0 54.88993835449219 25)"><text x="0" y="0" font-family="Virgil, Segoe UI Emoji" font-size="20px" fill="#1e1e1e" text-anchor="start" style="white-space: pre;" direction="ltr" dominant-baseline="text-before-edge">Track </text><text x="0" y="25" font-family="Virgil, Segoe UI Emoji" font-size="20px" fill="#1e1e1e" text-anchor="start" style="white-space: pre;" direction="ltr" dominant-baseline="text-before-edge">Association</text></g><g transform="translate(568.9460373963784 33.83747112751007) rotate(0 261.28973388671875 25)"><text x="0" y="0" font-family="Virgil, Segoe UI Emoji" font-size="20px" fill="#2f9e44" text-anchor="start" style="white-space: pre;" direction="ltr" dominant-baseline="text-before-edge">For each bbox on the current frame With regards to</text><text x="0" y="25" font-family="Virgil, Segoe UI Emoji" font-size="20px" fill="#2f9e44" text-anchor="start" style="white-space: pre;" direction="ltr" dominant-baseline="text-before-edge"> all the known tracks of the previous frame</text></g><g stroke-linecap="round"><g transform="translate(1738.126485570855 407.52341616153717) rotate(0 16.5 0)"><path d="M0.25 0.12 C5.73 0.01, 27.17 -0.03, 32.63 -0.1 M-0.29 -0.3 C5.39 -0.08, 28.18 0.48, 33.67 0.54" stroke="#1e1e1e" stroke-width="2" fill="none"></path></g></g><mask></mask><g stroke-linecap="round"><g transform="translate(1771.126485570855 405.52341616153717) rotate(0 -1.5 168.5)"><path d="M-1.04 1.15 C-1.52 57.12, -1.94 281.13, -2.25 337.01 M0.62 0.7 C-0.02 57.39, -2.09 282.42, -2.81 338.56" stroke="#1e1e1e" stroke-width="2" fill="none"></path></g></g><mask></mask><g stroke-linecap="round"><g transform="translate(1769.126485570855 743.0427582263947) rotate(0 -685 1.5)"><path d="M0.46 -0.69 C-227.83 -0.18, -1140.67 2.67, -1369.21 3.34 M-0.76 1.56 C-229.18 1.67, -1141.82 1.46, -1369.74 1.4" stroke="#1e1e1e" stroke-width="2" fill="none"></path></g></g><mask></mask><g stroke-linecap="round"><g transform="translate(399.1264855708551 743.0427582263947) rotate(0 -2 -124.5)"><path d="M-0.85 -0.91 C-1.43 -42.44, -3.51 -206.75, -4.08 -248.28 M0.91 1.23 C0.21 -40.73, -4.05 -208.26, -5.07 -250.02" stroke="#1e1e1e" stroke-width="2" fill="none"></path></g><g transform="translate(399.1264855708551 743.0427582263947) rotate(0 -2 -124.5)"><path d="M4.06 -226.74 C0.06 -232.82, 0.48 -239.05, -5.07 -250.02 M4.06 -226.74 C1.8 -232.01, 1.02 -236.02, -5.07 -250.02" stroke="#1e1e1e" stroke-width="2" fill="none"></path></g><g transform="translate(399.1264855708551 743.0427582263947) rotate(0 -2 -124.5)"><path d="M-13.03 -226.32 C-12.72 -232.38, -7.98 -238.72, -5.07 -250.02 M-13.03 -226.32 C-11.68 -231.56, -8.85 -235.66, -5.07 -250.02" stroke="#1e1e1e" stroke-width="2" fill="none"></path></g></g><mask></mask></svg>